<svg width="24" height="24" viewBox="0 0 24 24" fill="none" xmlns="http://www.w3.org/2000/svg">
<path d="M21.75 14.25V18C21.75 18.3978 21.592 18.7794 21.3107 19.0607C21.0294 19.342 20.6478 19.5 20.25 19.5H7.5C7.10218 19.5 6.72064 19.342 6.43934 19.0607C6.15804 18.7794 6 18.3978 6 18V14.25C6 13.8522 6.15804 13.4706 6.43934 13.1893C6.72064 12.908 7.10218 12.75 7.5 12.75H20.25C20.6478 12.75 21.0294 12.908 21.3107 13.1893C21.592 13.4706 21.75 13.8522 21.75 14.25ZM3.75 3C3.55109 3 3.36032 3.07902 3.21967 3.21967C3.07902 3.36032 3 3.55109 3 3.75V20.25C3 20.4489 3.07902 20.6397 3.21967 20.7803C3.36032 20.921 3.55109 21 3.75 21C3.94891 21 4.13968 20.921 4.28033 20.7803C4.42098 20.6397 4.5 20.4489 4.5 20.25V3.75C4.5 3.55109 4.42098 3.36032 4.28033 3.21967C4.13968 3.07902 3.94891 3 3.75 3ZM7.5 11.25H16.5C16.8978 11.25 17.2794 11.092 17.5607 10.8107C17.842 10.5294 18 10.1478 18 9.75V6C18 5.60218 17.842 5.22064 17.5607 4.93934C17.2794 4.65804 16.8978 4.5 16.5 4.5H7.5C7.10218 4.5 6.72064 4.65804 6.43934 4.93934C6.15804 5.22064 6 5.60218 6 6V9.75C6 10.1478 6.15804 10.5294 6.43934 10.8107C6.72064 11.092 7.10218 11.25 7.5 11.25Z" fill="#83B4EB"/>
</svg>
