<svg width="24" height="24" viewBox="0 0 24 24" fill="none" xmlns="http://www.w3.org/2000/svg">
<path d="M21 3.75V20.25C21 20.4489 20.921 20.6397 20.7803 20.7803C20.6397 20.921 20.4489 21 20.25 21C20.0511 21 19.8603 20.921 19.7197 20.7803C19.579 20.6397 19.5 20.4489 19.5 20.25V3.75C19.5 3.55109 19.579 3.36032 19.7197 3.21967C19.8603 3.07902 20.0511 3 20.25 3C20.4489 3 20.6397 3.07902 20.7803 3.21967C20.921 3.36032 21 3.55109 21 3.75ZM16.5 4.5H7.5C7.10218 4.5 6.72064 4.65804 6.43934 4.93934C6.15804 5.22064 6 5.60218 6 6V9.75C6 10.1478 6.15804 10.5294 6.43934 10.8107C6.72064 11.092 7.10218 11.25 7.5 11.25H16.5C16.8978 11.25 17.2794 11.092 17.5607 10.8107C17.842 10.5294 18 10.1478 18 9.75V6C18 5.60218 17.842 5.22064 17.5607 4.93934C17.2794 4.65804 16.8978 4.5 16.5 4.5ZM16.5 12.75H3.75C3.35218 12.75 2.97064 12.908 2.68934 13.1893C2.40804 13.4706 2.25 13.8522 2.25 14.25V18C2.25 18.3978 2.40804 18.7794 2.68934 19.0607C2.97064 19.342 3.35218 19.5 3.75 19.5H16.5C16.8978 19.5 17.2794 19.342 17.5607 19.0607C17.842 18.7794 18 18.3978 18 18V14.25C18 13.8522 17.842 13.4706 17.5607 13.1893C17.2794 12.908 16.8978 12.75 16.5 12.75Z" fill="#83B4EB"/>
</svg>
